<?xml version="1.0" encoding="UTF-8" standalone="no"?>
<!-- Created with Inkscape (http://www.inkscape.org/) -->

<svg
   width="48.000004"
   height="48"
   viewBox="0 0 48.000005 47.999999"
   version="1.1"
   id="svg1"
   xmlns="http://www.w3.org/2000/svg"
   xmlns:svg="http://www.w3.org/2000/svg">
  <defs
     id="defs1">
    <clipPath
       clipPathUnits="userSpaceOnUse"
       id="clipPath129">
      <path
         d="M 182.291,83.079 H 508.276 V 409.063 H 182.291 Z"
         transform="translate(-345.28383,-84.049605)"
         id="path129" />
    </clipPath>
    <clipPath
       clipPathUnits="userSpaceOnUse"
       id="clipPath131">
      <path
         d="M 182.291,83.079 H 508.276 V 409.063 H 182.291 Z"
         transform="translate(-345.28383,-409.06231)"
         id="path131" />
    </clipPath>
    <clipPath
       clipPathUnits="userSpaceOnUse"
       id="clipPath133">
      <path
         d="M 182.291,83.079 H 508.276 V 409.063 H 182.291 Z"
         transform="translate(-345.28383,-358.77421)"
         id="path133" />
    </clipPath>
  </defs>
  <g
     id="layer1"
     transform="translate(-81.00002,-125.79991)">
    <rect
       style="fill:#ffffff;stroke-width:2"
       id="rect4"
       width="48.000004"
       height="48"
       x="81.000023"
       y="125.79991" />
    <g
       id="g208"
       transform="matrix(0.09202906,0,0,0.09202906,-334.25567,122.87811)">
      <path
         id="path128"
         d="m 0,0 c -43.278,0 -83.965,16.853 -114.567,47.455 -30.602,30.601 -47.455,71.288 -47.455,114.566 0,43.278 16.853,83.965 47.455,114.566 30.602,30.602 71.289,47.456 114.567,47.456 43.278,0 83.964,-16.854 114.566,-47.456 30.602,-30.601 47.456,-71.288 47.456,-114.566 0,-43.278 -16.854,-83.965 -47.456,-114.566 C 83.965,16.853 43.278,0 0,0"
         style="fill:#ffffff;fill-opacity:1;fill-rule:nonzero;stroke:none"
         transform="matrix(1.3333333,0,0,-1.3333333,4773.0107,508.56413)"
         clip-path="url(#clipPath129)" />
      <path
         id="path130"
         d="m 0,0 c -22.003,0 -43.349,-4.31 -63.445,-12.81 -19.409,-8.209 -36.84,-19.961 -51.808,-34.929 -14.968,-14.969 -26.721,-32.399 -34.93,-51.809 -8.5,-20.095 -12.809,-41.441 -12.809,-63.444 0,-22.003 4.309,-43.348 12.809,-63.444 8.209,-19.409 19.962,-36.84 34.93,-51.808 14.968,-14.969 32.399,-26.72 51.808,-34.929 20.096,-8.5 41.442,-12.81 63.445,-12.81 22.003,0 43.349,4.31 63.445,12.81 19.409,8.209 36.84,19.96 51.807,34.929 14.969,14.968 26.721,32.399 34.93,51.808 8.5,20.096 12.81,41.441 12.81,63.444 0,22.003 -4.31,43.349 -12.81,63.444 -8.209,19.41 -19.961,36.84 -34.93,51.809 -14.967,14.968 -32.398,26.72 -51.807,34.929 C 43.349,-4.31 22.003,0 0,0 m 0,-1.94 c 88.946,0 161.051,-72.105 161.051,-161.052 0,-88.947 -72.105,-161.051 -161.051,-161.051 -88.947,0 -161.052,72.104 -161.052,161.051 0,88.947 72.105,161.052 161.052,161.052"
         style="fill:#211d1c;fill-opacity:1;fill-rule:nonzero;stroke:none"
         transform="matrix(1.3333333,0,0,-1.3333333,4773.0107,75.213867)"
         clip-path="url(#clipPath131)" />
      <path
         id="path132"
         d="m 0,0 c -15.214,0 -29.974,-2.98 -43.87,-8.858 -13.421,-5.676 -25.474,-13.802 -35.824,-24.152 -10.35,-10.35 -18.476,-22.403 -24.152,-35.824 -5.879,-13.896 -8.858,-28.656 -8.858,-43.87 0,-15.214 2.979,-29.974 8.858,-43.87 5.676,-13.421 13.802,-25.474 24.152,-35.823 10.35,-10.35 22.403,-18.476 35.824,-24.152 13.896,-5.878 28.656,-8.858 43.87,-8.858 15.214,0 29.974,2.98 43.87,8.858 13.421,5.676 25.474,13.802 35.824,24.152 10.349,10.349 18.476,22.402 24.152,35.823 5.878,13.896 8.858,28.656 8.858,43.87 0,15.214 -2.98,29.974 -8.858,43.87 C 98.17,-55.413 90.043,-43.36 79.694,-33.01 69.344,-22.66 57.291,-14.534 43.87,-8.858 29.974,-2.98 15.214,0 0,0 m 0,-1.94 c 61.173,0 110.763,-49.591 110.763,-110.764 0,-61.173 -49.59,-110.762 -110.763,-110.762 -61.173,0 -110.764,49.589 -110.764,110.762 0,61.173 49.591,110.764 110.764,110.764"
         style="fill:#211d1c;fill-opacity:1;fill-rule:nonzero;stroke:none"
         transform="matrix(1.3333333,0,0,-1.3333333,4773.0107,142.26467)"
         clip-path="url(#clipPath133)" />
      <path
         id="path134"
         d="M 1.0487434,-6.4386981e-4 1.0507717,-14.72417 l 2.9493319,-0.0021 -0.00544,5.8918721 2.9329903,7.025e-4 0.00544,-5.8918726 2.958882,0.0047 -0.00203,14.72352604 -2.9588819,-0.00473545 -0.00411,-5.89866369 -2.9329902,-7.025e-4 0.00411,5.89866366 z m 0,0"
         style="fill:#211d1c;fill-opacity:1;fill-rule:nonzero;stroke:none"
         aria-label="h"
         transform="matrix(1.0865898,-0.77272278,0.77272278,1.0865898,4667.4659,156.44733)" />
      <path
         id="path135"
         d="m 1.0582498,-14.716053 2.9405629,-0.0041 2.9395259,4.9103874 2.9517423,-4.9126654 2.9507051,0.0018 -4.42895,7.3479133 0.00138,7.36662086 -2.940563,0.0040741 -0.00138,-7.36662086 z m 0,0"
         style="fill:#211d1c;fill-opacity:1;fill-rule:nonzero;stroke:none"
         aria-label="y"
         transform="matrix(1.1539784,-0.66791585,0.66791585,1.1539784,4678.9355,148.1532)" />
      <path
         id="path136"
         d="m 1.0557313,-14.715839 2.9473745,-0.0033 2.2171422,8.8253768 2.1937479,-8.8220108 2.9473741,-0.0033 L 7.6796109,0.00281949 4.7370703,-0.00459453 Z m 0,0"
         style="fill:#211d1c;fill-opacity:1;fill-rule:nonzero;stroke:none"
         aria-label="v"
         transform="matrix(1.2146128,-0.54999417,0.54999417,1.2146128,4694.5764,139.13)" />
      <path
         id="path137"
         d="m 1.055459,-0.00215558 -0.002,-14.71368242 8.8392703,0.0027 0.00427,2.931676 -5.8965337,-0.0031 3.996e-4,2.9427366 4.4176992,0.00687 3.996e-4,2.9427365 -4.4176992,-0.00687 -0.00347,2.9537972 5.8965337,0.00307 3.996e-4,2.94273654784 z m 0,0"
         style="fill:#211d1c;fill-opacity:1;fill-rule:nonzero;stroke:none"
         aria-label="e"
         transform="matrix(1.2584548,-0.44053286,0.44053286,1.2584548,4709.262,132.50627)" />
      <path
         id="path138"
         d="M 1.0597517,0.00199471 4.7316378,-14.718032 7.6738132,-14.71548 11.354768,-0.0074217 8.4104819,0.00155416 7.6751351,-2.9446685 4.7329597,-2.9472197 3.9904,0.00243559 Z m 5.14469,-8.83910841 -0.7404494,2.9381282 1.4663794,-0.00554 z m 0,0"
         style="fill:#211d1c;fill-opacity:1;fill-rule:nonzero;stroke:none"
         aria-label=" a"
         transform="matrix(1.3115338,-0.24011862,0.24011862,1.3115338,4733.6872,124.78653)" />
      <path
         id="path139"
         d="m 1.0583303,0.00461176 -0.00337,-14.72413176 6.4740503,-0.008 2.3561029,2.373654 0.00514,4.108083 -0.8837802,0.8944285 0.883849,0.8710236 -0.00473,6.48462979 -2.9537254,-0.004863298 -0.00303,-5.896871392 -2.9303893,-0.00269 0.00303,5.89687142 z m 2.9438907,-8.84682216 2.9303893,0.00269 0.00377,-2.9420576 -2.9303893,-0.0027 z m 0,0"
         style="fill:#211d1c;fill-opacity:1;fill-rule:nonzero;stroke:none"
         aria-label="r"
         transform="matrix(1.3275684,-0.12385422,0.12385422,1.3275684,4749.5665,121.90573)" />
      <path
         id="path140"
         d="m 5.4726297,-0.00449768 0.00347,-11.77883532 -4.418718,0.01039 8.203e-4,-2.941779 11.779026,-0.0082 -8.21e-4,2.941779 -4.4185277,-0.0013 -0.00347,11.77883559 z m 0,0"
         style="fill:#211d1c;fill-opacity:1;fill-rule:nonzero;stroke:none"
         aria-label="t"
         transform="matrix(1.3331581,-0.02161737,0.02161737,1.3331581,4763.6177,120.62773)" />
      <path
         id="path141"
         d="m 1.0572685,-0.00262365 -0.00584,-14.71894435 2.9372646,0.0063 0.00584,14.71894494 z m 0,0"
         style="fill:#211d1c;fill-opacity:1;fill-rule:nonzero;stroke:none"
         aria-label="i"
         transform="matrix(1.3300942,0.09288293,-0.09288293,1.3300942,4781.8156,120.66653)" />
      <path
         id="path142"
         d="m 1.052633,0.0054183 0.00578,-14.7143533 8.839019,-0.0073 -0.00732,2.931857 -5.8970583,0.0015 0.00582,2.9419611 4.4202679,0.00214 -0.0058,2.9434774 -4.4202679,-0.00214 0.00153,5.89705832224 z m 0,0"
         style="fill:#211d1c;fill-opacity:1;fill-rule:nonzero;stroke:none"
         aria-label="f"
         transform="matrix(1.3221188,0.17256816,-0.17256816,1.3221188,4788.2649,120.9904)" />
      <path
         id="path143"
         d="M 1.054397,-0.00637961 4.7314695,-14.720726 7.6740082,-14.712622 11.3552,0.00355478 8.4126614,-0.00454918 7.6670101,-2.9360961 4.7244714,-2.9442001 3.9969357,0.00172435 Z m 5.1505634,-8.82329889 -0.730071,2.9344833 1.4642811,-4.01e-4 z m 0,0"
         style="fill:#211d1c;fill-opacity:1;fill-rule:nonzero;stroke:none"
         aria-label="a"
         transform="matrix(1.3017544,0.28846711,-0.28846711,1.3017544,4802.3243,122.76227)" />
      <path
         id="path144"
         d="m 3.404909,0.00307535 -2.3471989,-2.36681595 -0.00763,-10.0032044 2.3556436,-2.343662 4.1287915,-0.0041 2.3548344,2.352107 0.00968,2.049686 -2.9613196,0.0033 -0.0075,-1.460365 -2.938975,-0.0038 0.00681,8.8357328 2.9389749,0.00381 1.373e-4,-1.4750737 2.9613196,-0.00326 -0.00149,2.0532235 -2.3632792,2.35837115 z m 0,0"
         style="fill:#211d1c;fill-opacity:1;fill-rule:nonzero;stroke:none"
         aria-label="c"
         transform="matrix(1.2711604,0.40240402,-0.40240402,1.2711604,4818.0436,126.27)" />
      <path
         id="path145"
         d="m 5.470201,-0.00319517 -9.262e-4,-11.77305183 -4.4162432,9.19e-4 9.118e-4,-2.940566 11.7730516,-9.26e-4 -9.11e-4,2.940566 -4.4162436,9.19e-4 9.262e-4,11.77305161 z m 0,0"
         style="fill:#211d1c;fill-opacity:1;fill-rule:nonzero;stroke:none"
         aria-label="t"
         transform="matrix(1.2276038,0.52035251,-0.52035251,1.2276038,4831.5833,130.43827)" />
      <path
         id="path146"
         d="m 3.4056781,0.00233909 -2.353208,-2.35469659 0.00252,-10.0108165 2.3546966,-2.353208 4.1228165,-0.0043 2.353208,2.354696 8.692e-4,2.048369 -2.94896,-2.91e-4 -0.00665,-1.463281 -2.9328011,0.0034 0.00905,8.8406412 2.9328011,-0.00339 -0.00297,-1.4794399 2.94896,2.907e-4 -0.00281,2.0645279 -2.3546966,2.35320801 z m 0,0"
         style="fill:#211d1c;fill-opacity:1;fill-rule:nonzero;stroke:none"
         aria-label=" c"
         transform="matrix(1.1286458,0.70988482,-0.70988482,1.1286458,4858.3175,142.90347)" />
      <path
         id="path147"
         d="M 3.4154822,9.5991678e-4 1.0571651,-2.3610365 1.052685,-12.364161 l 2.3619964,-2.358317 4.1179691,0.0015 2.358317,2.361996 0.00448,10.0031242 -2.3619964,2.35831698 z M 4.0031342,-2.9452594 l 2.9390609,-0.00766 -0.00423,-8.8312496 -2.9390609,0.0077 z m 0,0"
         style="fill:#211d1c;fill-opacity:1;fill-rule:nonzero;stroke:none"
         aria-label="o"
         transform="matrix(1.0664958,0.80022779,-0.80022779,1.0664958,4870.342,150.44893)" />
      <path
         id="path148"
         d="m 1.0552461,-0.00443766 -7.491e-4,-2.93495614 2.9425385,0.00819 7.491e-4,2.93495611 z m 0,0"
         style="fill:#211d1c;fill-opacity:1;fill-rule:nonzero;stroke:none"
         aria-label="."
         transform="matrix(1.0166179,0.86270847,-0.86270847,1.0166179,4881.708,159.1132)" />
      <path
         id="path149"
         d="m 1.0485338,-5.9041123 0.00241,-2.936382 8.842259,0.00577 -0.00241,2.9363819 z m 0,0"
         style="fill:#211d1c;fill-opacity:1;fill-rule:nonzero;stroke:none"
         aria-label=" -"
         transform="matrix(0.90008671,0.98367764,-0.98367764,0.90008671,4895.0565,171.04013)" />
      <path
         id="path150"
         d="m 1.0553452,0.00592236 -0.00315,-14.72356336 2.9382063,6.39e-4 0.00379,11.785357 5.8926785,-0.0019 -6.39e-4,2.93820628 z m 0,0"
         style="fill:#211d1c;fill-opacity:1;fill-rule:nonzero;stroke:none"
         aria-label=" l"
         transform="matrix(0.74474236,1.1059551,-1.1059551,0.74474236,4911.7552,190.50373)" />
      <path
         id="path151"
         d="m 1.0610959,-0.00218654 -0.00531,-14.71983146 2.9363584,0.0026 0.00531,14.719830867 z m 0,0"
         style="fill:#211d1c;fill-opacity:1;fill-rule:nonzero;stroke:none"
         aria-label="i"
         transform="matrix(0.67681854,1.1487795,-1.1487795,0.67681854,4919.6499,202.42267)" />
      <path
         id="path152"
         d="m 1.0529011,-0.0034509 0.00293,-14.7218561 8.8415076,7.78e-4 -0.00374,2.945393 -5.8961145,0.003 0.00159,2.934956 4.4076523,2.792e-4 -0.00374,2.945393 -4.4076523,-2.792e-4 0.00296,5.89611455108 z m 0,0"
         style="fill:#211d1c;fill-opacity:1;fill-rule:nonzero;stroke:none"
         aria-label="f"
         transform="matrix(0.60626528,1.1875269,-1.1875269,0.60626528,4923.0328,207.91533)" />
      <path
         id="path153"
         d="m 1.0516767,0.002142 -0.00442,-14.719855 8.8396974,0.0031 0.00917,2.942302 -5.901842,-0.0014 -0.00167,2.9378548 4.4198486,0.00154 -0.00612,2.9486976 -4.4198486,-0.00154 0.00472,2.9531445 5.901842,0.0014 -0.00167,2.93785528 z m 0,0"
         style="fill:#211d1c;fill-opacity:1;fill-rule:nonzero;stroke:none"
         aria-label="e"
         transform="matrix(0.50596061,1.2336051,-1.2336051,0.50596061,4929.4973,220.54093)" />
      <path
         id="path154"
         d="m 1.0520336,-4.4124721 2.9389733,-0.00497 7.198e-4,1.4750735 2.9354409,0.0062 0.00209,-2.9613207 -3.5247638,-0.00815 -2.3453955,-2.3391991 -0.00108,-4.1176186 2.3462639,-2.367743 4.1287928,0.0025 2.3606782,2.368611 0.00231,2.053223 -2.9613206,-0.0021 -0.00425,-1.4639 -2.9354409,-0.0062 0.00497,2.9389726 3.4912427,-0.00245 2.3977316,2.3680346 0.00108,4.1176191 L 7.5361686,-0.0028902 3.4073758,-0.00534415 1.054339,-2.3592494 Z m 0,0"
         style="fill:#211d1c;fill-opacity:1;fill-rule:nonzero;stroke:none"
         aria-label="s"
         transform="matrix(0.40190192,1.2713192,-1.2713192,0.40190192,4934.8967,233.662)" />
      <path
         id="path155"
         d="m 5.4756373,0.00486982 0.00566,-11.78191782 -4.4222075,-0.0045 -0.0033,-2.937503 11.7704622,0.0032 0.0033,2.937504 -4.410751,-0.002 -0.00566,11.7819184 z m 0,0"
         style="fill:#211d1c;fill-opacity:1;fill-rule:nonzero;stroke:none"
         aria-label="t"
         transform="matrix(0.28045136,1.3035048,-1.3035048,0.28045136,4939.2709,247.12627)" />
      <path
         id="path156"
         d="m 1.0526831,-14.724376 2.9454705,0.01032 2.9485249,4.9137583 2.9449224,-4.9164213 2.9467231,-0.0013 -4.4219559,7.3623535 -0.00124,7.35453089 -2.9467236,0.001331334 0.00124,-7.354530924 z m 0,0"
         style="fill:#211d1c;fill-opacity:1;fill-rule:nonzero;stroke:none"
         aria-label="y"
         transform="matrix(0.14256853,1.3256893,-1.3256893,0.14256853,4943.0833,264.72667)" />
      <path
         id="path157"
         d="m 1.0542286,0.00399297 0.00436,-14.72061497 2.9419696,-0.01088 -0.00353,11.7788361 5.8952764,0.00186 -8.339e-4,2.9417796 z m 0,0"
         style="fill:#211d1c;fill-opacity:1;fill-rule:nonzero;stroke:none"
         aria-label="l"
         transform="matrix(0.02162356,1.333158,-1.333158,0.02162356,4944.9312,282.7268)" />
      <path
         id="path158"
         d="m 1.0577805,0.00111352 0.00265,-14.71655252 8.8319572,-0.0032 -0.00334,2.936452 -5.895506,0.0066 -0.00256,2.9481434 4.4159786,-0.00162 0.00836,2.9356694 -4.4159787,0.00162 -0.00177,2.9598365 5.895506,-0.00658 -0.00334,2.93645127 z m 0,0"
         style="fill:#211d1c;fill-opacity:1;fill-rule:nonzero;stroke:none"
         aria-label="e"
         transform="matrix(-0.08894593,1.3303633,-1.3303633,-0.08894593,4945.1653,296.9088)" />
      <path
         id="path159"
         d="m 1.0582505,-5.8941669 -0.010404,-2.9489417 8.8314564,0.00815 0.010404,2.9489417 z m 0,0"
         style="fill:#211d1c;fill-opacity:1;fill-rule:nonzero;stroke:none"
         aria-label=" -"
         transform="matrix(-0.285416,1.3024268,-1.3024268,-0.285416,4942.6404,322.4116)" />
      <path
         id="path160"
         d="m 1.0564143,-0.00298668 0.00432,-14.71936532 2.9356111,-9.1e-4 2.8285765,6.9339913 3.0687498,-6.9335283 2.9356113,-9.11e-4 -0.0043,14.71936533 -2.9356111,9.1053e-4 0.00262,-6.94403876 -3.0644426,6.94442708 -2.8417592,-6.90358028 0.00626,6.90272889 z m 0,0"
         style="fill:#211d1c;fill-opacity:1;fill-rule:nonzero;stroke:none"
         aria-label=" m"
         transform="matrix(-0.4900612,1.2400072,-1.2400072,-0.4900612,4936.4353,347.27013)" />
      <path
         id="path161"
         d="m 1.0516894,-14.712198 2.9400905,-0.0069 0.00682,11.7709675 2.9453933,0.00352 -0.00682,-11.7709675 2.9558436,-0.0018 0.00508,12.3631971 L 7.5326975,0.00248862 3.4185987,6.4757911e-4 1.0567718,-2.3490011 Z m 0,0"
         style="fill:#211d1c;fill-opacity:1;fill-rule:nonzero;stroke:none"
         aria-label="u"
         transform="matrix(-0.60333651,1.1890176,-1.1890176,-0.60333651,4929.8401,363.7828)" />
      <path
         id="path162"
         d="m 1.0594185,-4.4231905 2.9365355,0.0081 -9.749e-4,1.4732568 2.940368,-0.00803 0.00195,-2.9465135 -3.51923,0.00671 -2.3608714,-2.3583079 -0.00157,-4.1142159 2.3644536,-2.350893 4.1142156,-0.0016 2.3608714,2.358308 -0.00229,2.052119 -2.9626371,-0.0058 9.748e-4,-1.473257 -2.9403679,0.008 -0.00195,2.946513 3.4931284,-0.0044 2.4130746,2.3536818 L 9.8928291,-2.34918 7.528383,0.00179439 3.4141674,0.00335991 1.053296,-2.3549481 Z m 0,0"
         style="fill:#211d1c;fill-opacity:1;fill-rule:nonzero;stroke:none"
         aria-label="s"
         transform="matrix(-0.69922861,1.1352784,-1.1352784,-0.69922861,4923.4413,376.43053)" />
      <path
         id="path163"
         d="M 1.0614974,8.5072802e-4 1.0607185,-14.720381 l 2.9357983,5e-5 7.79e-4,14.72123162113 z m 0,0"
         style="fill:#211d1c;fill-opacity:1;fill-rule:nonzero;stroke:none"
         aria-label="i"
         transform="matrix(-0.76638288,1.0910706,-1.0910706,-0.76638288,4915.8373,388.56467)" />
      <path
         id="path164"
         d="m 3.4108873,-0.00529819 -2.360727,-2.34467031 0.00227,-10.0073455 2.3538388,-2.368026 4.1197031,8.27e-4 2.3661555,2.370306 5.217e-4,2.051618 -2.9520547,-0.0017 -1.056e-4,-1.467794 -2.9428863,-0.009 -0.00311,8.8396978 2.9428862,0.00896 0.00176,-1.4842609 2.9520548,0.00166 -0.00135,2.0680851 -2.3592672,2.34238999 z m 0,0"
         style="fill:#211d1c;fill-opacity:1;fill-rule:nonzero;stroke:none"
         aria-label="c"
         transform="matrix(-0.83040276,1.0431726,-1.0431726,-0.83040276,4912.2404,393.90573)" />
      <path
         id="path165"
         d="m 1.053889,-5.8893431 -0.00333,-2.9350713 8.8383391,-0.011158 0.00333,2.9350713 z m 0,0"
         style="fill:#211d1c;fill-opacity:1;fill-rule:nonzero;stroke:none"
         aria-label=" -"
         transform="matrix(-0.9752421,0.90921979,-0.90921979,-0.9752421,4895.6452,413.4384)" />
      <path
         id="path166"
         d="m 1.0530495,-0.00731282 3.6826111,-14.70923618 2.9447652,0.002 L 11.356437,0.00445245 8.4116715,0.00247604 7.6791022,-2.9452072 4.7343369,-2.9471836 3.9978147,-0.00533641 Z m 5.1706096,-8.82667878 -0.7624956,2.9383787 1.4756736,-0.00386 z m 0,0"
         style="fill:#211d1c;fill-opacity:1;fill-rule:nonzero;stroke:none"
         aria-label=" a"
         transform="matrix(-1.1031507,0.74889002,-0.74889002,-1.1031507,4876.3744,430.34347)" />
      <path
         id="path167"
         d="m 1.0595497,0.00172796 0.00355,-14.71498896 6.4787836,0.0018 2.3450624,2.339885 -9.014e-4,4.1181025 -0.8844412,0.8889218 0.8889218,0.8844412 -0.00175,6.47878356 -2.9537034,0.0040555 -0.00358,-5.89146576 -2.9377623,-4.763e-4 0.00358,5.89146576 z m 2.940364,-8.83898816 2.9377623,4.763e-4 4.763e-4,-2.9377621 -2.9377623,-4.76e-4 z m 0,0"
         style="fill:#211d1c;fill-opacity:1;fill-rule:nonzero;stroke:none"
         aria-label="r"
         transform="matrix(-1.1646844,0.64906707,-0.64906707,-1.1646844,4863.0159,439.38413)" />
      <path
         id="path168"
         d="M 5.4669809,3.5882781e-5 5.4647395,-11.77964 l -4.4179682,0.0022 0.00212,-2.943739 11.7796757,-0.0022 -0.0021,2.943739 -4.4179687,0.0022 0.00224,11.77967513 z m 0,0"
         style="fill:#211d1c;fill-opacity:1;fill-rule:nonzero;stroke:none"
         aria-label="t"
         transform="matrix(-1.2204244,0.53697486,-0.53697486,-1.2204244,4850.7067,446.37253)" />
      <path
         id="path169"
         d="m 1.0469498,-4.4184983 2.9498198,0.00317 0.00213,1.4823162 2.9386971,-5.183e-4 0.00317,-2.9498197 -3.5279336,-0.00975 -2.367682,-2.3534842 0.00521,-4.1097367 2.3646069,-2.363993 4.1208602,0.0089 2.3565592,2.349795 -7.601e-4,2.049307 -2.9535096,0.008 0.0053,-1.467503 -2.9386971,5.18e-4 5.183e-4,2.9386966 3.4834428,-0.00501 2.4047399,2.353431 0.00222,4.1245499 L 7.531042,0.00431588 3.4101818,-0.00458404 1.0536226,-2.3543785 Z m 0,0"
         style="fill:#211d1c;fill-opacity:1;fill-rule:nonzero;stroke:none"
         aria-label="s"
         transform="matrix(-1.2655158,0.41981842,-0.41981842,-1.2655158,4834.1452,453.5816)" />
      <path
         id="path170"
         d="m 1.0620983,-5.893948 -0.00611,-2.9380598 8.835292,-0.0028 0.00611,2.9380598 z m 0,0"
         style="fill:#211d1c;fill-opacity:1;fill-rule:nonzero;stroke:none"
         aria-label=" -"
         transform="matrix(-1.3140491,0.22594881,-0.22594881,-1.3140491,4809.5595,460.86227)" />
      <path
         id="path171"
         d="m 1.0601537,-14.715251 2.9419697,-0.01088 2.9324516,4.911485 2.9628248,-4.909627 2.9417792,8.34e-4 L 8.4184716,-7.3644812 12.83482,-0.00282759 9.8930402,-0.00366152 6.9371542,-4.9155263 3.9977637,-0.00551943 1.0557941,0.00536385 5.476692,-7.3653151 Z m 0,0"
         style="fill:#211d1c;fill-opacity:1;fill-rule:nonzero;stroke:none"
         aria-label=" x"
         transform="matrix(-1.333158,0.02162356,-0.02162356,-1.333158,4784.1923,464.43307)" />
      <path
         id="path172"
         d="m 1.0585989,-0.00392013 0.00316,-14.72048487 6.4785289,0.0027 2.3424841,2.349257 0.00512,4.1146634 -2.347359,2.3658446 -3.5385346,0.00534 -0.00341,5.89071981 z m 2.9359489,-8.86846597 2.9390453,-0.00366 -8.129e-4,-2.9040049 -2.9390453,0.0037 z m 0,0"
         style="fill:#211d1c;fill-opacity:1;fill-rule:nonzero;stroke:none"
         aria-label="p"
         transform="matrix(-1.3289536,-0.10798205,0.10798205,-1.3289536,4766.1528,464.61253)" />
      <path
         id="path173"
         d="M 3.4081252,-0.00331883 1.0617981,-2.3481522 1.06183,-12.360451 l 2.3429268,-2.35789 4.1228088,0.0091 2.3694524,2.34102 -3.19e-5,10.0122989 -2.3660521,2.36170272 z m 0.5830783,-2.94661527 2.9456982,0.00126 -0.00779,-8.8351889 -2.9456982,-0.0013 z m 0,0"
         style="fill:#211d1c;fill-opacity:1;fill-rule:nonzero;stroke:none"
         aria-label="o"
         transform="matrix(-1.3155702,-0.21691652,0.21691652,-1.3155702,4752.0033,463.48053)" />
      <path
         id="path174"
         d="m 1.0523446,0.0024931 -0.00346,-14.7169951 6.488781,-5.2e-4 2.3566399,2.355755 0.00573,4.1069961 -0.8997409,0.8908683 0.8993751,0.8855179 -0.00234,6.47741607 -2.9615963,-0.00439795 0.00315,-5.89760492 -2.9360085,0.00125 -0.00315,5.89760493 z m 2.9492697,-8.8377223 2.9360086,-0.00125 -0.00411,-2.9473728 -2.9360085,0.0013 z m 0,0"
         style="fill:#211d1c;fill-opacity:1;fill-rule:nonzero;stroke:none"
         aria-label="r"
         transform="matrix(-1.2930713,-0.32518379,0.32518379,-1.2930713,4737.9844,461.1848)" />
      <path
         id="path175"
         d="M 5.4704825,2.2375703e-4 5.4748233,-11.775253 l -4.4144232,-0.0021 1.066e-4,-2.946631 11.7754773,0.0043 -1.07e-4,2.94663 -4.414423,-0.0021 -0.00434,11.77547734438 z m 0,0"
         style="fill:#211d1c;fill-opacity:1;fill-rule:nonzero;stroke:none"
         aria-label="t"
         transform="matrix(-1.2567481,-0.44537853,0.44537853,-1.2567481,4724.2455,457.8464)" />
      <path
         id="path176"
         d="m 1.0614776,-4.4195255 2.9358851,0.00628 -6.741e-4,1.4732569 2.9415783,-0.00928 0.00135,-2.9465139 -3.5235168,0.00818 -2.3643324,-2.3648185 0.00356,-4.110391 2.3591253,-2.348768 4.1210194,-0.0014 2.3438327,2.348496 0.00885,2.05026 -2.9465139,-0.0013 -0.00995,-1.468321 -2.9415784,0.0093 0.00928,2.9415788 3.4973238,-0.00893 2.3855899,2.3549475 0.00631,4.1316482 L 7.5344213,0.00404707 3.4134019,0.00542389 1.0646337,-2.3537014 Z m 0,0"
         style="fill:#211d1c;fill-opacity:1;fill-rule:nonzero;stroke:none"
         aria-label="s"
         transform="matrix(-1.2093129,-0.56155158,0.56155158,-1.2093129,4707.2415,451.7432)" />
      <path
         id="path177"
         d="m 1.0508148,-5.8911785 0.00851,-2.9414172 8.8308821,-0.00694 -0.00851,2.9414173 z m 0,0"
         style="fill:#211d1c;fill-opacity:1;fill-rule:nonzero;stroke:none"
         aria-label=" -"
         transform="matrix(-1.1123487,-0.73515858,0.73515858,-1.1123487,4684.3469,440.19947)" />
      <path
         id="path178"
         d="m 1.0545764,-0.00174378 0.0011,-14.72070922 6.4805949,0.0037 2.356042,2.357197 5.2e-5,10.0074699 -2.3571977,2.35604203 z m 2.9445382,-2.94723102 2.9371707,0.00649 0.0038,-8.8289392 -2.9371708,-0.0065 z m 0,0"
         style="fill:#211d1c;fill-opacity:1;fill-rule:nonzero;stroke:none"
         aria-label=" d"
         transform="matrix(-0.99144231,-0.89152674,0.89152674,-0.99144231,4663.4255,425.3872)" />
      <path
         id="path179"
         d="m 1.0545091,-0.00559215 -0.00217,-14.71444285 8.8372838,0.01006 0.00185,2.934558 -5.8942038,-0.0039 -0.00619,2.9430804 4.4184027,-0.00325 0.010373,2.9426016 -4.4184027,0.00325 0.00233,2.9511238 5.8942038,0.00386 -0.00619,2.94308007 z m 0,0"
         style="fill:#211d1c;fill-opacity:1;fill-rule:nonzero;stroke:none"
         aria-label="e"
         transform="matrix(-0.91519934,-0.96963289,0.96963289,-0.91519934,4652.8684,415.91533)" />
      <path
         id="path180"
         d="m 1.0508986,-4.4120802 2.9428987,-0.00263 -0.00326,1.4677903 2.9428987,-0.00263 0.00469,-2.9520515 -3.5267207,9.538e-4 -2.3633751,-2.3547784 7.184e-4,-4.110543 2.3639312,-2.356057 4.1270135,-0.0011 2.3469042,2.356613 -0.00494,2.051612 -2.9520515,-0.0047 0.00326,-1.46779 -2.9428987,0.0026 0.00263,2.942899 3.4937787,0.00272 2.4054699,2.3584274 -0.00804,4.1196954 -2.3474603,2.35422236 -4.1270135,0.0011162 L 1.045963,-2.360468 Z m 0,0"
         style="fill:#211d1c;fill-opacity:1;fill-rule:nonzero;stroke:none"
         aria-label="s"
         transform="matrix(-0.83264511,-1.0413836,1.0413836,-0.83264511,4643.1059,405.596)" />
      <path
         id="path181"
         d="m 1.0607241,0.00170074 -0.00143,-14.71555874 2.9425477,-0.0036 0.00143,14.71555891 z m 0,0"
         style="fill:#211d1c;fill-opacity:1;fill-rule:nonzero;stroke:none"
         aria-label="i"
         transform="matrix(-0.76863845,-1.0894828,1.0894828,-0.76863845,4634.2621,394.3596)" />
      <path
         id="path182"
         d="M 3.4064624,-9.8779891e-4 1.057277,-2.3510356 l 0.00409,-10.0034264 2.3462517,-2.365318 4.1303339,0.007 2.3591496,2.356216 -0.00233,2.052119 -2.9564746,-0.01086 0.00235,-1.473255 -2.9427143,0.01144 -0.00411,8.8456993 2.9427143,-0.011442 8.944e-4,-2.9626426 -1.4632911,0.00382 -0.00148,-2.9365462 4.4197656,0.00704 5.939e-4,6.4780525 -2.3562159,2.35914958 z m 0,0"
         style="fill:#211d1c;fill-opacity:1;fill-rule:nonzero;stroke:none"
         aria-label="g"
         transform="matrix(-0.70178527,-1.1336998,1.1336998,-0.70178527,4630.4459,389.16933)" />
      <path
         id="path183"
         d="m 1.0479341,0.00237568 0.00525,-14.71615468 2.9505655,0.0021 4.4075384,8.396272 0.00524,-8.406231 2.945298,0.01259 -0.0053,14.71615544 -2.9452983,-0.01258557 -4.4180069,-8.40153907 0.00523,8.41149799 z m 0,0"
         style="fill:#211d1c;fill-opacity:1;fill-rule:nonzero;stroke:none"
         aria-label="n"
         transform="matrix(-0.59925688,-1.1910789,1.1910789,-0.59925688,4622.9332,377.15147)" />
      <path
         id="path184"
         d="m 1.0565463,-5.902249 0.00812,-2.9389662 8.8352207,0.00563 -0.00812,2.9389663 z m 0,0"
         style="fill:#211d1c;fill-opacity:1;fill-rule:nonzero;stroke:none"
         aria-label=" -"
         transform="matrix(-0.40756154,-1.2695162,1.2695162,-0.40756154,4611.384,352.1228)" />
      <path
         id="path185"
         d="M 3.4090266,-0.00469057 1.0577458,-2.3445566 1.0532958,-12.353068 3.408479,-14.72561 l 4.1305867,0.0046 2.3475315,2.363001 0.00445,10.0085116 -2.3514339,2.34940609435 z m 0.5955936,-2.94261813 2.9322411,3.3e-4 -0.00495,-8.8333013 -2.932241,-3.3e-4 z m 0,0"
         style="fill:#211d1c;fill-opacity:1;fill-rule:nonzero;stroke:none"
         aria-label=" o"
         transform="matrix(-0.21329567,-1.3161621,1.3161621,-0.21329567,4604.3421,327.46973)" />
      <path
         id="path186"
         d="m 1.0590529,-0.00452244 0.00417,-14.72226656 2.9372703,0.0027 4.4152116,8.4175653 0.00238,-8.4127233 2.9372702,0.0027 -0.0042,14.72226678 -2.9372696,-0.00265973 -4.4152117,-8.41756545 -0.00238,8.41272369 z m 0,0"
         style="fill:#211d1c;fill-opacity:1;fill-rule:nonzero;stroke:none"
         aria-label="n"
         transform="matrix(-0.09695632,-1.3298035,1.3298035,-0.09695632,4602.0144,313.47773)" />
      <path
         id="path187"
         d="M 1.0596469,0.00333179 4.741673,-14.718999 l 2.9409998,0.0075 3.6674812,14.70603266 -2.9400026,0.00418407 -0.7330972,-2.93653603 -2.9409998,-0.00749 -0.7364052,2.9444661229 z m 5.1492179,-8.83758249 -0.7364052,2.9444662 1.4695024,-0.00793 z m 0,0"
         style="fill:#211d1c;fill-opacity:1;fill-rule:nonzero;stroke:none"
         aria-label=" a"
         transform="matrix(0.1134977,-1.3284939,1.3284939,0.1134977,4600.8787,285.93813)" />
      <path
         id="path188"
         d="m 1.0542425,-4.4209475 2.9445546,0.00288 -0.00144,1.4722773 2.9445546,0.00288 9.52e-5,-2.9559371 -3.5243595,-0.00569 -2.3732688,-2.3506562 0.00571,-4.1155465 2.367613,-2.353291 4.1269294,0.0029 2.3505039,2.356231 -0.00425,2.052082 -2.9559371,-9.5e-5 0.00423,-1.460895 -2.9445546,-0.0029 -0.00288,2.944555 3.4988074,-1.196e-4 L 9.900754,-6.4785954 9.897834,-2.351666 7.541598,-0.00111899 3.4146686,-0.00403945 1.0527822,-2.3574828 Z m 0,0"
         style="fill:#211d1c;fill-opacity:1;fill-rule:nonzero;stroke:none"
         aria-label=" s"
         transform="matrix(0.31711659,-1.2950733,1.2950733,0.31711659,4604.1484,258.55587)" />
      <path
         id="path189"
         d="m 1.0522338,-14.72694 2.9395381,6.14e-4 1.771645,7.7941799 1.1672794,-4.8540289 2.9545331,0.0077 1.1715616,4.8466677 1.76859,-7.7855927 2.939538,6.14e-4 L 12.492854,-7.9210679e-4 9.5533161,-0.00140573 8.4157318,-5.1343074 7.2735754,-0.00286271 4.3340374,-0.00347633 Z m 0,0"
         style="fill:#211d1c;fill-opacity:1;fill-rule:nonzero;stroke:none"
         aria-label="w"
         transform="matrix(0.4515523,-1.2545431,1.2545431,0.4515523,4607.2733,244.81333)" />
      <path
         id="path190"
         d="M 1.060184,0.00301388 4.7365982,-14.712887 7.6767147,-14.707163 11.358625,-4.7804269e-4 8.4185082,-0.00620194 7.6851865,-2.9359866 4.74507,-2.9417105 3.9951363,-0.00178174 Z m 5.153386,-8.83529258 -0.7394142,2.9347646 1.4622164,1.843e-4 z m 0,0"
         style="fill:#211d1c;fill-opacity:1;fill-rule:nonzero;stroke:none"
         aria-label="a"
         transform="matrix(0.58756997,-1.1968873,1.1968873,0.58756997,4614.8221,224.23933)" />
      <path
         id="path191"
         d="m 1.0568319,0.00311271 0.00636,-14.71754071 6.4774575,-0.0043 2.346973,2.359951 0.00668,4.1059241 -0.8947065,0.8979911 0.8858509,0.8746583 0.00428,6.4774575 -2.954323,0.00801771 0.00613,-5.89466781 -2.9342748,-0.00412 -0.00613,5.89466784 z m 2.9484803,-8.84091431 2.9342747,0.00412 -0.00195,-2.9442994 -2.9342747,-0.0041 z m 0,0"
         style="fill:#211d1c;fill-opacity:1;fill-rule:nonzero;stroke:none"
         aria-label="r"
         transform="matrix(0.69064702,-1.1405194,1.1405194,0.69064702,4621.9496,209.77693)" />
      <path
         id="path192"
         d="m 1.0553487,0.00607941 -0.00384,-14.72142241 2.9414962,-0.0045 2.8429968,6.9348179 3.0469663,-6.9344699 2.941496,-0.0045 0.0038,14.72142199 -2.9414965,0.0045361 -0.0023,-6.93765799 -3.0469662,6.9344702 -2.8409243,-6.8926163 2.224e-4,6.8954563 z m 0,0"
         style="fill:#211d1c;fill-opacity:1;fill-rule:nonzero;stroke:none"
         aria-label="m"
         transform="matrix(0.79312929,-1.0717853,1.0717853,0.79312929,4629.1911,197.618)" />
      <path
         id="path193"
         d="m 1.0502915,-5.8957704 0.00293,-2.9501458 8.8420667,5.805e-4 -0.00293,2.9501459 z m 0,0"
         style="fill:#211d1c;fill-opacity:1;fill-rule:nonzero;stroke:none"
         aria-label=" -"
         transform="matrix(0.95241685,-0.93310231,0.93310231,0.95241685,4647.3989,174.7276)" />
      <path
         id="path194"
         d="M 0,0 -15.756,27.29 0,54.58 H 31.512 L 47.267,27.29 31.512,0 Z"
         style="fill:#100f0d;fill-opacity:1;fill-rule:nonzero;stroke:none"
         transform="matrix(1.3333333,0,0,-1.3333333,4706.6032,250.13173)" />
      <path
         id="path195"
         d="M 0,0 -15.756,27.289 0,54.58 H 31.512 L 47.267,27.289 31.512,0 Z"
         style="fill:#100f0d;fill-opacity:1;fill-rule:nonzero;stroke:none"
         transform="matrix(1.3333333,0,0,-1.3333333,4706.6032,329.26853)" />
      <path
         id="path196"
         d="M 0,0 -15.756,27.289 0,54.58 H 31.512 L 47.267,27.289 31.512,0 Z"
         style="fill:#100f0d;fill-opacity:1;fill-rule:nonzero;stroke:none"
         transform="matrix(1.3333333,0,0,-1.3333333,4706.6032,407.71493)" />
      <path
         id="path197"
         d="M 0,0 -15.197,26.319 0,52.639 H 30.391 L 45.585,26.319 30.391,0 Z"
         style="fill:#fbca07;fill-opacity:1;fill-rule:nonzero;stroke:none"
         transform="matrix(1.3333333,0,0,-1.3333333,4775.8757,288.52147)" />
      <path
         id="path198"
         d="M 0,0 H -31.512 L -47.268,-27.289 -31.512,-54.58 H 0 l 15.755,27.291 z M -1.12,-1.94 13.515,-27.289 -1.12,-52.639 h -29.271 l -14.637,25.35 14.637,25.349 z"
         style="fill:#100f0d;fill-opacity:1;fill-rule:nonzero;stroke:none"
         transform="matrix(1.3333333,0,0,-1.3333333,4817.1441,217.0424)" />
      <path
         id="path199"
         d="M 0,0 -15.757,27.289 0,54.58 H 31.512 L 47.266,27.289 31.512,0 Z"
         style="fill:#100f0d;fill-opacity:1;fill-rule:nonzero;stroke:none"
         transform="matrix(1.3333333,0,0,-1.3333333,4775.1287,368.26133)" />
      <path
         id="path200"
         d="M 0,0 -15.756,27.289 0,54.58 H 31.512 L 47.268,27.289 31.512,0 Z"
         style="fill:#100f0d;fill-opacity:1;fill-rule:nonzero;stroke:none"
         transform="matrix(1.3333333,0,0,-1.3333333,4843.4217,329.26853)" />
    </g>
  </g>
</svg>
