<?xml version="1.0" encoding="UTF-8" standalone="no"?>
<!-- Created with Inkscape (http://www.inkscape.org/) -->

<svg
   width="48.000004"
   height="48"
   viewBox="0 0 48.000005 47.999999"
   version="1.1"
   id="svg1"
   xmlns="http://www.w3.org/2000/svg"
   xmlns:svg="http://www.w3.org/2000/svg">
  <defs
     id="defs1">
    <clipPath
       clipPathUnits="userSpaceOnUse"
       id="clipPath102">
      <path
         d="M 311.11,112.294 H 934 V 664 H 311.11 Z"
         transform="translate(-621.31754,-664.00012)"
         id="path102" />
    </clipPath>
    <clipPath
       clipPathUnits="userSpaceOnUse"
       id="clipPath104">
      <path
         d="M 311.11,112.294 H 934 V 664 H 311.11 Z"
         transform="translate(-493.77719,-622.55932)"
         id="path104" />
    </clipPath>
    <clipPath
       clipPathUnits="userSpaceOnUse"
       id="clipPath106">
      <path
         d="M 311.11,112.294 H 934 V 664 H 311.11 Z"
         transform="translate(-414.95361,-514.06621)"
         id="path106" />
    </clipPath>
    <clipPath
       clipPathUnits="userSpaceOnUse"
       id="clipPath108">
      <path
         d="M 311.11,112.294 H 934 V 664 H 311.11 Z"
         transform="translate(-414.95361,-379.96231)"
         id="path108" />
    </clipPath>
    <clipPath
       clipPathUnits="userSpaceOnUse"
       id="clipPath110">
      <path
         d="M 311.11,112.294 H 934 V 664 H 311.11 Z"
         transform="translate(-493.77839,-271.47051)"
         id="path110" />
    </clipPath>
    <clipPath
       clipPathUnits="userSpaceOnUse"
       id="clipPath112">
      <path
         d="M 311.11,112.294 H 934 V 664 H 311.11 Z"
         transform="translate(-621.31882,-230.0298)"
         id="path112" />
    </clipPath>
    <clipPath
       clipPathUnits="userSpaceOnUse"
       id="clipPath114">
      <path
         d="M 311.11,112.294 H 934 V 664 H 311.11 Z"
         transform="translate(-748.85902,-271.47051)"
         id="path114" />
    </clipPath>
    <clipPath
       clipPathUnits="userSpaceOnUse"
       id="clipPath116">
      <path
         d="M 311.11,112.294 H 934 V 664 H 311.11 Z"
         transform="translate(-827.6838,-379.96231)"
         id="path116" />
    </clipPath>
    <clipPath
       clipPathUnits="userSpaceOnUse"
       id="clipPath118">
      <path
         d="M 311.11,112.294 H 934 V 664 H 311.11 Z"
         transform="translate(-827.6838,-514.06722)"
         id="path118" />
    </clipPath>
    <clipPath
       clipPathUnits="userSpaceOnUse"
       id="clipPath120">
      <path
         d="M 311.11,112.294 H 934 V 664 H 311.11 Z"
         transform="translate(-748.85902,-622.56061)"
         id="path120" />
    </clipPath>
    <clipPath
       clipPathUnits="userSpaceOnUse"
       id="clipPath122">
      <path
         d="M 311.11,112.294 H 934 V 664 H 311.11 Z"
         transform="translate(-765.97499,-447.01351)"
         id="path122" />
    </clipPath>
  </defs>
  <g
     id="layer1"
     transform="translate(-81.00002,-125.79991)">
    <rect
       style="fill:#ffffff;stroke-width:2"
       id="rect4"
       width="48.000004"
       height="48"
       x="81.000023"
       y="125.79991" />
    <g
       id="g100"
       transform="matrix(0.05184259,0,0,0.05184259,-385.51833,121.48238)">
      <g
         id="g122"
         aria-label="jovensadventistas"
         transform="matrix(1.3333333,0,0,1.3333333,9080.7527,856.39187)">
        <path
           id="path125"
           d="M 1.4403344,-1.6875e-4 H 2.9286156 V -12.199387 H 1.4403344 Z m 0,-14.49609325 h 1.4882812 v -2.390625 H 1.4403344 Z M 10.525295,-1.3947 c -2.7421872,0 -4.0195309,-2.390625 -4.0195309,-4.8515625 0,-2.53125 1.1835937,-5.0624995 4.0195309,-5.0624995 2.8125,0 3.925782,2.6718745 3.925782,5.0624995 0,2.484375 -1.347657,4.8515625 -3.925782,4.8515625 z m 5.414063,-10.804687 h -1.488281 v 2.097656 h -0.04687 c -0.597657,-1.347656 -2.109375,-2.460938 -3.878907,-2.460938 -3.5273434,0 -5.5078122,2.8007815 -5.5078122,6.152344 0,3.4804688 1.6054688,6.26953125 5.5078122,6.26953125 1.746094,0 3.1875,-1.01953125 3.878907,-2.50781245 h 0.04687 v 1.6523437 c 0,2.9882813 -1.183594,4.6171875 -3.925782,4.6171875 -1.6523434,0 -3.2460934,-0.6445312 -3.5742184,-2.4375 H 5.4627953 c 0.2109375,2.6015625 2.625,3.6914063 5.0624997,3.6914063 3.996094,0 5.390625,-2.2265625 5.414063,-5.8710938 z m 2.668945,12.19921825 h 1.488281 V -6.504075 c 0,-2.53125 1.851563,-4.511719 4.546875,-4.371094 v -1.488281 c -2.203125,-0.09375 -3.855468,1.054688 -4.617187,3.0234375 h -0.04687 V -12.199387 H 18.608303 Z M 35.729397,-5.6954812 c 0.117187,-3.4335938 -1.441406,-6.8671878 -5.367188,-6.8671878 -3.878906,0 -5.507812,3.246094 -5.507812,6.4570315 0,3.4804688 1.628906,6.45703125 5.507812,6.45703125 3.070313,0 4.675782,-1.60546875 5.320313,-4.37109375 h -1.488281 c -0.480469,1.8398438 -1.664063,3.1171875 -3.832032,3.1171875 -2.859375,0 -3.996093,-2.625 -4.019531,-4.7929687 z m -9.386719,-1.2539063 c 0.234375,-2.2265625 1.582031,-4.3593745 4.019531,-4.3593745 2.414063,0 3.808594,2.1093745 3.878907,4.3593745 z m 11.25,8.4375 c 0,1.0195313 -0.1875,1.7695313 -1.347656,1.7695313 -0.234375,0.035156 -0.5625,0 -0.808594,-0.023437 V 4.464675 c 0.363281,0 0.691406,0.046875 1.042969,0.046875 2.109375,0 2.601562,-1.5585937 2.601562,-3.375 v -13.335937 h -1.488281 z m 0,-15.9843745 h 1.488281 v -2.390625 h -1.488281 z m 11.991211,9.7617183 c 0.02344,2.390625 -1.980469,3.8320312 -4.253906,3.8320312 -1.394531,0 -2.71875,-0.9140625 -2.71875,-2.4140625 0,-2.3789062 3.140625,-2.3554687 5.671875,-2.8125 0.398437,-0.070312 1.066406,-0.1875 1.253906,-0.5390625 h 0.04687 z m -6.457031,-3.7265625 c 0.04687,-1.9921878 1.417969,-2.8476558 3.269531,-2.8476558 1.746094,0 3.1875,0.503906 3.1875,2.507812 0,1.3476563 -0.691406,1.5117188 -1.910156,1.6640625 -3.222656,0.375 -6.550781,0.4921875 -6.550781,3.9257813 0,2.4492187 1.839843,3.56249995 4.089843,3.56249995 2.332032,0 3.398438,-0.890625 4.441407,-2.48437495 h 0.04687 c 0,1.2773437 0.234375,2.13281245 1.746093,2.13281245 0.410157,0 0.644532,-0.0234375 0.972657,-0.09375 V -1.347825 c -0.117188,0.046875 -0.304688,0.09375 -0.46875,0.09375 -0.597657,0 -0.878907,-0.328125 -0.878907,-0.9023437 v -6.4804688 c 0,-3.2578125 -2.34375,-3.9257815 -4.488281,-3.9257815 -2.789062,0 -4.804687,1.230469 -4.945312,4.1015628 z m 24.969726,3.7265625 c 0.02344,2.390625 -1.980468,3.8320312 -4.253906,3.8320312 -1.394531,0 -2.71875,-0.9140625 -2.71875,-2.4140625 0,-2.3789062 3.140625,-2.3554687 5.671875,-2.8125 0.398438,-0.070312 1.066406,-0.1875 1.253906,-0.5390625 h 0.04687 z m -6.457031,-3.7265625 c 0.04687,-1.9921878 1.417969,-2.8476558 3.269531,-2.8476558 1.746094,0 3.1875,0.503906 3.1875,2.507812 0,1.3476563 -0.691406,1.5117188 -1.910156,1.6640625 -3.222656,0.375 -6.550781,0.4921875 -6.550781,3.9257813 0,2.4492187 1.839844,3.56249995 4.089844,3.56249995 2.332031,0 3.398437,-0.890625 4.441406,-2.48437495 h 0.04687 c 0,1.2773437 0.234375,2.13281245 1.746094,2.13281245 0.410156,0 0.644531,-0.0234375 0.972656,-0.09375 V -1.347825 c -0.117188,0.046875 -0.304688,0.09375 -0.46875,0.09375 -0.597656,0 -0.878906,-0.328125 -0.878906,-0.9023437 v -6.4804688 c 0,-3.2578125 -2.34375,-3.9257815 -4.488282,-3.9257815 -2.789062,0 -4.804687,1.230469 -4.945312,4.1015628 z m 11.730469,2.3554687 c 0,-2.53125 1.160156,-5.2031245 3.996094,-5.2031245 3.164062,0 4.277343,2.6718745 4.277343,5.2031245 0,2.53125 -1.113281,5.203125 -4.277343,5.203125 -2.835938,0 -3.996094,-2.671875 -3.996094,-5.203125 z m 9.761719,-10.7812495 h -1.488282 v 6.9960933 h -0.04687 c -0.632812,-1.7460933 -2.414062,-2.6718753 -4.230468,-2.6718753 -3.714844,0 -5.484375,3.011719 -5.484375,6.4570315 0,3.4570313 1.769531,6.45703125 5.484375,6.45703125 1.769531,0 3.714843,-1.08984375 4.347656,-2.67187495 h 0.04687 v 2.32031245 h 1.371094 z m 6.011718,16.88671825 h 1.582032 L 95.284084,-12.199387 H 93.748928 L 89.963772,-1.48845 h -0.04687 L 86.084866,-12.199387 H 84.432522 Z M 106.85049,-5.6954812 c 0.11719,-3.4335938 -1.44141,-6.8671878 -5.36719,-6.8671878 -3.878903,0 -5.507809,3.246094 -5.507809,6.4570315 0,3.4804688 1.628906,6.45703125 5.507809,6.45703125 3.07032,0 4.67578,-1.60546875 5.32032,-4.37109375 h -1.48829 c -0.48046,1.8398438 -1.66406,3.1171875 -3.83203,3.1171875 -2.859372,0 -3.996091,-2.625 -4.019528,-4.7929687 z m -9.386718,-1.2539063 c 0.234375,-2.2265625 1.582031,-4.3593745 4.019528,-4.3593745 2.41407,0 3.8086,2.1093745 3.87891,4.3593745 z M 108.6669,-1.6875e-4 h 1.48828 V -7.11345 c 0.0469,-2.390625 1.46484,-4.195312 3.83203,-4.195312 2.41406,0 3.09375,1.5937495 3.09375,3.6914058 v 7.61718745 h 1.5 V -7.8517312 c 0,-2.9062498 -1.04297,-4.7109378 -4.47656,-4.7109378 -1.72266,0 -3.35157,0.996094 -3.90235,2.460938 h -0.0469 v -2.097656 H 108.6669 Z M 123.59073,-15.867356 h -1.48829 v 3.667969 h -2.13281 v 1.253906 h 2.13281 v 8.3437498 c -0.0234,2.08593745 0.65625,2.74218745 2.64844,2.74218745 0.44531,0 0.86719,-0.046875 1.32422,-0.046875 V -1.1837625 c -0.43359,0.046875 -0.85547,0.070312 -1.27734,0.070312 -1.06641,-0.070312 -1.20703,-0.6328125 -1.20703,-1.6054687 v -8.2265628 h 2.48437 v -1.253906 h -2.48437 z m 4.48828,15.86718725 h 1.48828 V -12.199387 h -1.48828 z m 0,-14.49609325 h 1.48828 v -2.390625 h -1.48828 z m 12.9873,5.8593745 c -0.0937,-2.6484375 -2.03906,-3.9257815 -4.47656,-3.9257815 -2.14453,0 -4.58203,0.949219 -4.58203,3.433594 0,2.0859375 1.46484,2.7421875 3.39843,3.2695313 l 1.92188,0.421875 c 1.34766,0.328125 2.67187,0.796875 2.67187,2.2265625 0,1.6992187 -1.94531,2.3085937 -3.33984,2.3085937 -1.98047,0 -3.46875,-1.03125 -3.58594,-3.046875 h -1.48828 c 0.23438,2.9765625 2.16797,4.30078125 5.00391,4.30078125 2.27344,0 4.89844,-1.01953125 4.89844,-3.66796875 0,-2.1210937 -1.76954,-3.1171875 -3.48047,-3.375 l -1.98047,-0.4453125 c -1.01953,-0.2695312 -2.53125,-0.7382812 -2.53125,-2.0625 0,-1.5820315 1.55859,-2.1093745 2.88281,-2.1093745 1.71094,0 3.12891,0.832031 3.19922,2.6718745 z m 4.77246,-7.2304685 h -1.48828 v 3.667969 h -2.13281 v 1.253906 h 2.13281 v 8.3437498 c -0.0234,2.08593745 0.65625,2.74218745 2.64844,2.74218745 0.44531,0 0.86719,-0.046875 1.32422,-0.046875 V -1.1837625 c -0.4336,0.046875 -0.85547,0.070312 -1.27735,0.070312 -1.0664,-0.070312 -1.20703,-0.6328125 -1.20703,-1.6054687 v -8.2265628 h 2.48438 v -1.253906 h -2.48438 z m 12.27246,11.1328123 c 0.0234,2.390625 -1.98047,3.8320312 -4.2539,3.8320312 -1.39453,0 -2.71875,-0.9140625 -2.71875,-2.4140625 0,-2.3789062 3.14062,-2.3554687 5.67187,-2.8125 0.39844,-0.070312 1.06641,-0.1875 1.25391,-0.5390625 h 0.0469 z m -6.45703,-3.7265625 c 0.0469,-1.9921878 1.41797,-2.8476558 3.26953,-2.8476558 1.7461,0 3.1875,0.503906 3.1875,2.507812 0,1.3476563 -0.6914,1.5117188 -1.91015,1.6640625 -3.22266,0.375 -6.55078,0.4921875 -6.55078,3.9257813 0,2.4492187 1.83984,3.56249995 4.08984,3.56249995 2.33203,0 3.39844,-0.890625 4.44141,-2.48437495 h 0.0469 c 0,1.2773437 0.23438,2.13281245 1.74609,2.13281245 0.41016,0 0.64454,-0.0234375 0.97266,-0.09375 V -1.347825 c -0.11719,0.046875 -0.30469,0.09375 -0.46875,0.09375 -0.59766,0 -0.87891,-0.328125 -0.87891,-0.9023437 v -6.4804688 c 0,-3.2578125 -2.34375,-3.9257815 -4.48828,-3.9257815 -2.78906,0 -4.80468,1.230469 -4.94531,4.1015628 z m 18.1377,2.3554687 c 0,-2.53125 1.16015,-5.2031245 3.99609,-5.2031245 3.16406,0 4.27734,2.6718745 4.27734,5.2031245 0,2.53125 -1.11328,5.203125 -4.27734,5.203125 -2.83594,0 -3.99609,-2.671875 -3.99609,-5.203125 z m 9.76172,-10.7812495 h -1.48829 v 6.9960933 h -0.0469 c -0.63281,-1.7460933 -2.41406,-2.6718753 -4.23047,-2.6718753 -3.71484,0 -5.48437,3.011719 -5.48437,6.4570315 0,3.4570313 1.76953,6.45703125 5.48437,6.45703125 1.76953,0 3.71484,-1.08984375 4.34766,-2.67187495 h 0.0469 v 2.32031245 h 1.3711 z m 7.82812,4.324218 c -3.73828,0 -5.76562,2.964844 -5.76562,6.4570315 0,3.5039063 2.02734,6.45703125 5.76562,6.45703125 3.73828,0 5.76563,-2.95312495 5.76563,-6.45703125 0,-3.4921875 -2.02735,-6.4570315 -5.76563,-6.4570315 z m 0,1.253907 c 2.85938,0 4.27734,2.601562 4.27734,5.2031245 0,2.6015625 -1.41796,5.203125 -4.27734,5.203125 -2.85937,0 -4.27734,-2.6015625 -4.27734,-5.203125 0,-2.6015625 1.41797,-5.2031245 4.27734,-5.2031245 z m 23.0332,2.6718745 c -0.0937,-2.6484375 -2.03906,-3.9257815 -4.47656,-3.9257815 -2.14453,0 -4.58203,0.949219 -4.58203,3.433594 0,2.0859375 1.46484,2.7421875 3.39844,3.2695313 l 1.92187,0.421875 c 1.34766,0.328125 2.67188,0.796875 2.67188,2.2265625 0,1.6992187 -1.94532,2.3085937 -3.33985,2.3085937 -1.98047,0 -3.46875,-1.03125 -3.58593,-3.046875 h -1.48829 c 0.23438,2.9765625 2.16797,4.30078125 5.00391,4.30078125 2.27344,0 4.89844,-1.01953125 4.89844,-3.66796875 0,-2.1210937 -1.76953,-3.1171875 -3.48047,-3.375 l -1.98047,-0.4453125 c -1.01953,-0.2695312 -2.53125,-0.7382812 -2.53125,-2.0625 0,-1.5820315 1.55859,-2.1093745 2.88281,-2.1093745 1.71094,0 3.12891,0.832031 3.19922,2.6718745 z m 12.6709,2.9414063 c 0.11719,-3.4335938 -1.4414,-6.8671878 -5.36719,-6.8671878 -3.8789,0 -5.50781,3.246094 -5.50781,6.4570315 0,3.4804688 1.62891,6.45703125 5.50781,6.45703125 3.07032,0 4.67579,-1.60546875 5.32032,-4.37109375 h -1.48828 c -0.48047,1.8398438 -1.66407,3.1171875 -3.83204,3.1171875 -2.85937,0 -3.99609,-2.625 -4.01953,-4.7929687 z m -9.38672,-1.2539063 c 0.23438,-2.2265625 1.58203,-4.3593745 4.01953,-4.3593745 2.41407,0 3.8086,2.1093745 3.87891,4.3593745 z m 6.76172,-10.2890625 h -1.85156 l -2.47266,3.328125 h 1.20703 z m 6.83203,1.371094 h -1.48828 v 3.667969 h -2.13281 v 1.253906 h 2.13281 v 8.3437498 c -0.0234,2.08593745 0.65625,2.74218745 2.64844,2.74218745 0.44531,0 0.86719,-0.046875 1.32422,-0.046875 V -1.1837625 c -0.4336,0.046875 -0.85547,0.070312 -1.27735,0.070312 -1.0664,-0.070312 -1.20703,-0.6328125 -1.20703,-1.6054687 v -8.2265628 h 2.48438 v -1.253906 h -2.48438 z m 4.49121,15.86718725 h 1.48829 V -12.199387 h -1.48829 z m 0,-14.49609325 h 1.48829 v -2.390625 h -1.48829 z m 4.1836,14.49609325 h 1.48828 V -6.8087625 c 0.0234,-2.5546875 1.06641,-4.4999995 3.64453,-4.4999995 1.88672,0 2.57813,1.3710933 2.55469,3.0351558 v 8.27343745 h 1.48828 V -6.9025125 c 0,-2.2734375 0.73828,-4.4062495 3.31641,-4.4062495 2.12109,0 2.88281,1.089843 2.88281,3.1054683 v 8.20312495 h 1.48828 V -8.2736062 c 0,-2.8828128 -1.37109,-4.2890628 -4.04297,-4.2890628 -1.60547,0 -3.15234,0.785157 -3.87891,2.390625 -0.44531,-1.605468 -1.89843,-2.390625 -3.5039,-2.390625 -1.9336,0 -3.21094,0.949219 -3.9961,2.414063 h -0.0703 v -2.050781 h -1.37109 z M 260.65615,-12.562669 c -3.73828,0 -5.76562,2.964844 -5.76562,6.4570315 0,3.5039063 2.02734,6.45703125 5.76562,6.45703125 3.73829,0 5.76563,-2.95312495 5.76563,-6.45703125 0,-3.4921875 -2.02734,-6.4570315 -5.76563,-6.4570315 z m 0,1.253907 c 2.85938,0 4.27735,2.601562 4.27735,5.2031245 0,2.6015625 -1.41797,5.203125 -4.27735,5.203125 -2.85937,0 -4.27734,-2.6015625 -4.27734,-5.203125 0,-2.6015625 1.41797,-5.2031245 4.27734,-5.2031245 z m 15.20215,5.2031245 c 0,-2.53125 1.16016,-5.2031245 3.9961,-5.2031245 3.16406,0 4.27734,2.6718745 4.27734,5.2031245 0,2.53125 -1.11328,5.203125 -4.27734,5.203125 -2.83594,0 -3.9961,-2.671875 -3.9961,-5.203125 z m 9.76172,-10.7812495 h -1.48828 v 6.9960933 h -0.0469 c -0.63282,-1.7460933 -2.41407,-2.6718753 -4.23047,-2.6718753 -3.71485,0 -5.48438,3.011719 -5.48438,6.4570315 0,3.4570313 1.76953,6.45703125 5.48438,6.45703125 1.76953,0 3.71484,-1.08984375 4.34765,-2.67187495 h 0.0469 v 2.32031245 h 1.37109 z m 2.69531,16.88671825 h 1.48829 V -12.199387 h -1.48829 z m 0,-14.49609325 h 1.48829 v -2.390625 h -1.48829 z m 11.99122,9.7617183 c 0.0234,2.390625 -1.98047,3.8320312 -4.25391,3.8320312 -1.39453,0 -2.71875,-0.9140625 -2.71875,-2.4140625 0,-2.3789062 3.14062,-2.3554687 5.67187,-2.8125 0.39844,-0.070312 1.06641,-0.1875 1.25391,-0.5390625 h 0.0469 z m -6.45704,-3.7265625 c 0.0469,-1.9921878 1.41797,-2.8476558 3.26954,-2.8476558 1.74609,0 3.1875,0.503906 3.1875,2.507812 0,1.3476563 -0.69141,1.5117188 -1.91016,1.6640625 -3.22266,0.375 -6.55078,0.4921875 -6.55078,3.9257813 0,2.4492187 1.83984,3.56249995 4.08984,3.56249995 2.33203,0 3.39844,-0.890625 4.44141,-2.48437495 h 0.0469 c 0,1.2773437 0.23438,2.13281245 1.7461,2.13281245 0.41015,0 0.64453,-0.0234375 0.97265,-0.09375 V -1.347825 c -0.11718,0.046875 -0.30468,0.09375 -0.46875,0.09375 -0.59765,0 -0.8789,-0.328125 -0.8789,-0.9023437 v -6.4804688 c 0,-3.2578125 -2.34375,-3.9257815 -4.48828,-3.9257815 -2.78907,0 -4.80469,1.230469 -4.94532,4.1015628 z m 18.1377,2.3554687 c 0,-2.53125 1.16016,-5.2031245 3.99609,-5.2031245 3.16407,0 4.27735,2.6718745 4.27735,5.2031245 0,2.53125 -1.11328,5.203125 -4.27735,5.203125 -2.83593,0 -3.99609,-2.671875 -3.99609,-5.203125 z m 9.76172,-10.7812495 h -1.48828 v 6.9960933 h -0.0469 c -0.63281,-1.7460933 -2.41406,-2.6718753 -4.23047,-2.6718753 -3.71484,0 -5.48437,3.011719 -5.48437,6.4570315 0,3.4570313 1.76953,6.45703125 5.48437,6.45703125 1.76953,0 3.71485,-1.08984375 4.34766,-2.67187495 h 0.0469 v 2.32031245 h 1.3711 z m 12.9375,11.1914058 c 0.11719,-3.4335938 -1.44141,-6.8671878 -5.36719,-6.8671878 -3.87891,0 -5.50781,3.246094 -5.50781,6.4570315 0,3.4804688 1.6289,6.45703125 5.50781,6.45703125 3.07031,0 4.67578,-1.60546875 5.32031,-4.37109375 h -1.48828 c -0.48047,1.8398438 -1.66406,3.1171875 -3.83203,3.1171875 -2.85937,0 -3.99609,-2.625 -4.01953,-4.7929687 z m -9.38672,-1.2539063 c 0.23437,-2.2265625 1.58203,-4.3593745 4.01953,-4.3593745 2.41406,0 3.80859,2.1093745 3.87891,4.3593745 z m 27.40723,0.84375 c 0,2.53125 -1.16016,5.203125 -4.00782,5.203125 -3.16406,0 -4.27734,-2.671875 -4.27734,-5.203125 0,-2.53125 1.11328,-5.2031245 4.27734,-5.2031245 2.84766,0 4.00782,2.6718745 4.00782,5.2031245 z m -9.77344,6.10546875 h 1.37109 V -2.3204812 h 0.0469 c 0.6914,1.6523437 2.39062,2.67187495 4.34765,2.67187495 3.71485,0 5.4961,-2.99999995 5.4961,-6.45703125 0,-3.4453125 -1.78125,-6.4570315 -5.4961,-6.4570315 -1.8164,0 -3.58593,0.925782 -4.23047,2.6718753 h -0.0469 V -16.886887 H 342.9335 Z M 361.496,-12.562669 c -3.73828,0 -5.76563,2.964844 -5.76563,6.4570315 0,3.5039063 2.02735,6.45703125 5.76563,6.45703125 3.73828,0 5.76562,-2.95312495 5.76562,-6.45703125 0,-3.4921875 -2.02734,-6.4570315 -5.76562,-6.4570315 z m 0,1.253907 c 2.85937,0 4.27734,2.601562 4.27734,5.2031245 0,2.6015625 -1.41797,5.203125 -4.27734,5.203125 -2.85938,0 -4.27735,-2.6015625 -4.27735,-5.203125 0,-2.6015625 1.41797,-5.2031245 4.27735,-5.2031245 z m 10.19238,-4.558594 h -1.48828 v 3.667969 h -2.13281 v 1.253906 h 2.13281 v 8.3437498 c -0.0234,2.08593745 0.65625,2.74218745 2.64844,2.74218745 0.44531,0 0.86718,-0.046875 1.32422,-0.046875 V -1.1837625 c -0.4336,0.046875 -0.85547,0.070312 -1.27735,0.070312 -1.0664,-0.070312 -1.20703,-0.6328125 -1.20703,-1.6054687 v -8.2265628 h 2.48438 v -1.253906 h -2.48438 z m 12.27246,11.1328123 c 0.0234,2.390625 -1.98047,3.8320312 -4.2539,3.8320312 -1.39454,0 -2.71875,-0.9140625 -2.71875,-2.4140625 0,-2.3789062 3.14062,-2.3554687 5.67187,-2.8125 0.39844,-0.070312 1.06641,-0.1875 1.25391,-0.5390625 h 0.0469 z m -6.45703,-3.7265625 c 0.0469,-1.9921878 1.41797,-2.8476558 3.26953,-2.8476558 1.7461,0 3.1875,0.503906 3.1875,2.507812 0,1.3476563 -0.6914,1.5117188 -1.91015,1.6640625 -3.22266,0.375 -6.55079,0.4921875 -6.55079,3.9257813 0,2.4492187 1.83985,3.56249995 4.08985,3.56249995 2.33203,0 3.39844,-0.890625 4.4414,-2.48437495 h 0.0469 c 0,1.2773437 0.23437,2.13281245 1.74609,2.13281245 0.41016,0 0.64453,-0.0234375 0.97266,-0.09375 V -1.347825 c -0.11719,0.046875 -0.30469,0.09375 -0.46875,0.09375 -0.59766,0 -0.87891,-0.328125 -0.87891,-0.9023437 v -6.4804688 c 0,-3.2578125 -2.34375,-3.9257815 -4.48828,-3.9257815 -2.78906,0 -4.80469,1.230469 -4.94531,4.1015628 z m 15.46875,-3.7382808 h -2.41406 v -1.066407 c 0.0234,-1.324218 -0.0234,-2.367187 1.6289,-2.367187 0.35157,0 0.69141,0.04687 1.08985,0.117187 v -1.277343 c -0.46875,-0.07031 -0.83203,-0.09375 -1.25391,-0.09375 -2.39062,0 -2.97656,1.464843 -2.95312,3.574218 v 1.113282 h -2.08594 v 1.253906 h 2.08594 V -1.6875e-4 h 1.48828 V -10.945481 h 2.41406 z m 6.40137,-0.363282 c -3.73828,0 -5.76563,2.964844 -5.76563,6.4570315 0,3.5039063 2.02735,6.45703125 5.76563,6.45703125 3.73828,0 5.76562,-2.95312495 5.76562,-6.45703125 0,-3.4921875 -2.02734,-6.4570315 -5.76562,-6.4570315 z m 0,1.253907 c 2.85937,0 4.27734,2.601562 4.27734,5.2031245 0,2.6015625 -1.41797,5.203125 -4.27734,5.203125 -2.85938,0 -4.27735,-2.6015625 -4.27735,-5.203125 0,-2.6015625 1.41797,-5.2031245 4.27735,-5.2031245 z m 12.72363,9.914062 c -2.74219,0 -4.01953,-2.390625 -4.01953,-4.8515625 0,-2.53125 1.18359,-5.0624995 4.01953,-5.0624995 2.8125,0 3.92578,2.6718745 3.92578,5.0624995 0,2.484375 -1.34765,4.8515625 -3.92578,4.8515625 z m 5.41406,-10.804687 h -1.48828 v 2.097656 h -0.0469 c -0.59766,-1.347656 -2.10938,-2.460938 -3.87891,-2.460938 -3.52734,0 -5.50781,2.8007815 -5.50781,6.152344 0,3.4804688 1.60547,6.26953125 5.50781,6.26953125 1.74609,0 3.1875,-1.01953125 3.87891,-2.50781245 h 0.0469 v 1.6523437 c 0,2.9882813 -1.18359,4.6171875 -3.92578,4.6171875 -1.65234,0 -3.24609,-0.6445312 -3.57422,-2.4375 h -1.48828 c 0.21094,2.6015625 2.625,3.6914063 5.0625,3.6914063 3.99609,0 5.39063,-2.2265625 5.41406,-5.8710938 z m 7.8252,-0.363282 c -3.73828,0 -5.76563,2.964844 -5.76563,6.4570315 0,3.5039063 2.02735,6.45703125 5.76563,6.45703125 3.73828,0 5.76562,-2.95312495 5.76562,-6.45703125 0,-3.4921875 -2.02734,-6.4570315 -5.76562,-6.4570315 z m 0,1.253907 c 2.85937,0 4.27734,2.601562 4.27734,5.2031245 0,2.6015625 -1.41797,5.203125 -4.27734,5.203125 -2.85938,0 -4.27735,-2.6015625 -4.27735,-5.203125 0,-2.6015625 1.41797,-5.2031245 4.27735,-5.2031245 z m 20.15039,5.4960933 v -1.3710938 h -5.91797 v 1.3710938 z m 9.07324,5.81249995 h 1.48828 V -6.504075 c 0,-2.53125 1.85157,-4.511719 4.54688,-4.371094 v -1.488281 c -2.20313,-0.09375 -3.85547,1.054688 -4.61719,3.0234375 h -0.0469 v -2.8593745 h -1.3711 z m 7.77832,0 h 1.48828 V -12.199387 h -1.48828 z m 0,-14.49609325 h 1.48828 v -2.390625 h -1.48828 z m 8.86817,1.933593 c -3.73829,0 -5.76563,2.964844 -5.76563,6.4570315 0,3.5039063 2.02734,6.45703125 5.76563,6.45703125 3.73828,0 5.76562,-2.95312495 5.76562,-6.45703125 0,-3.4921875 -2.02734,-6.4570315 -5.76562,-6.4570315 z m 0,1.253907 c 2.85937,0 4.27734,2.601562 4.27734,5.2031245 0,2.6015625 -1.41797,5.203125 -4.27734,5.203125 -2.85938,0 -4.27735,-2.6015625 -4.27735,-5.203125 0,-2.6015625 1.41797,-5.2031245 4.27735,-5.2031245 z m 15.20507,5.2031245 c 0,-2.53125 1.16016,-5.2031245 3.9961,-5.2031245 3.16406,0 4.27734,2.6718745 4.27734,5.2031245 0,2.53125 -1.11328,5.203125 -4.27734,5.203125 -2.83594,0 -3.9961,-2.671875 -3.9961,-5.203125 z m 9.76172,-10.7812495 h -1.48828 v 6.9960933 h -0.0469 c -0.63282,-1.7460933 -2.41407,-2.6718753 -4.23047,-2.6718753 -3.71485,0 -5.48438,3.011719 -5.48438,6.4570315 0,3.4570313 1.76953,6.45703125 5.48438,6.45703125 1.76953,0 3.71484,-1.08984375 4.34765,-2.67187495 h 0.0469 v 2.32031245 h 1.37109 z m 12.9375,11.1914058 c 0.11719,-3.4335938 -1.4414,-6.8671878 -5.36718,-6.8671878 -3.87891,0 -5.50782,3.246094 -5.50782,6.4570315 0,3.4804688 1.62891,6.45703125 5.50782,6.45703125 3.07031,0 4.67578,-1.60546875 5.32031,-4.37109375 h -1.48828 c -0.48047,1.8398438 -1.66407,3.1171875 -3.83203,3.1171875 -2.85938,0 -3.9961,-2.625 -4.01954,-4.7929687 z m -9.38672,-1.2539063 c 0.23438,-2.2265625 1.58204,-4.3593745 4.01954,-4.3593745 2.41406,0 3.80859,2.1093745 3.8789,4.3593745 z m 17.65723,8.4375 c 0,1.0195313 -0.1875,1.7695313 -1.34766,1.7695313 -0.23437,0.035156 -0.5625,0 -0.80859,-0.023437 V 4.464675 c 0.36328,0 0.69141,0.046875 1.04297,0.046875 2.10937,0 2.60156,-1.5585937 2.60156,-3.375 v -13.335937 h -1.48828 z m 0,-15.9843745 h 1.48828 v -2.390625 h -1.48828 z m 11.98828,9.7617183 c 0.0234,2.390625 -1.98047,3.8320312 -4.2539,3.8320312 -1.39454,0 -2.71875,-0.9140625 -2.71875,-2.4140625 0,-2.3789062 3.14062,-2.3554687 5.67187,-2.8125 0.39844,-0.070312 1.06641,-0.1875 1.25391,-0.5390625 h 0.0469 z m -6.45703,-3.7265625 c 0.0469,-1.9921878 1.41797,-2.8476558 3.26953,-2.8476558 1.7461,0 3.1875,0.503906 3.1875,2.507812 0,1.3476563 -0.6914,1.5117188 -1.91015,1.6640625 -3.22266,0.375 -6.55079,0.4921875 -6.55079,3.9257813 0,2.4492187 1.83985,3.56249995 4.08985,3.56249995 2.33203,0 3.39844,-0.890625 4.4414,-2.48437495 h 0.0469 c 0,1.2773437 0.23437,2.13281245 1.74609,2.13281245 0.41016,0 0.64453,-0.0234375 0.97266,-0.09375 V -1.347825 c -0.11719,0.046875 -0.30469,0.09375 -0.46875,0.09375 -0.59766,0 -0.87891,-0.328125 -0.87891,-0.9023437 v -6.4804688 c 0,-3.2578125 -2.34375,-3.9257815 -4.48828,-3.9257815 -2.78906,0 -4.80469,1.230469 -4.94531,4.1015628 z m 10.73731,8.46093745 h 1.48828 V -7.11345 c 0.0469,-2.390625 1.46484,-4.195312 3.83203,-4.195312 2.41406,0 3.09375,1.5937495 3.09375,3.6914058 v 7.61718745 h 1.5 V -7.8517312 c 0,-2.9062498 -1.04297,-4.7109378 -4.47656,-4.7109378 -1.72266,0 -3.35157,0.996094 -3.90235,2.460938 h -0.0469 v -2.097656 h -1.48828 z m 22.34765,-5.69531245 c 0.11719,-3.4335938 -1.4414,-6.8671878 -5.36719,-6.8671878 -3.8789,0 -5.50781,3.246094 -5.50781,6.4570315 0,3.4804688 1.62891,6.45703125 5.50781,6.45703125 3.07032,0 4.67579,-1.60546875 5.32032,-4.37109375 h -1.48828 c -0.48047,1.8398438 -1.66407,3.1171875 -3.83204,3.1171875 -2.85937,0 -3.99609,-2.625 -4.01953,-4.7929687 z m -9.38672,-1.2539063 c 0.23438,-2.2265625 1.58203,-4.3593745 4.01953,-4.3593745 2.41407,0 3.8086,2.1093745 3.87891,4.3593745 z m 11.25,6.94921875 h 1.48828 V -12.199387 h -1.48828 z m 0,-14.49609325 h 1.48828 v -2.390625 h -1.48828 z m 4.1836,14.49609325 h 1.48828 V -6.504075 c 0,-2.53125 1.85156,-4.511719 4.54687,-4.371094 v -1.488281 c -2.20312,-0.09375 -3.85547,1.054688 -4.61718,3.0234375 h -0.0469 v -2.8593745 h -1.37109 z M 574.05948,-12.562669 c -3.73829,0 -5.76563,2.964844 -5.76563,6.4570315 0,3.5039063 2.02734,6.45703125 5.76563,6.45703125 3.73828,0 5.76562,-2.95312495 5.76562,-6.45703125 0,-3.4921875 -2.02734,-6.4570315 -5.76562,-6.4570315 z m 0,1.253907 c 2.85937,0 4.27734,2.601562 4.27734,5.2031245 0,2.6015625 -1.41797,5.203125 -4.27734,5.203125 -2.85938,0 -4.27735,-2.6015625 -4.27735,-5.203125 0,-2.6015625 1.41797,-5.2031245 4.27735,-5.2031245 z m 0,0"
           style="fill:#8d8d8d;fill-opacity:1;fill-rule:nonzero;stroke:none"
           aria-label="igreja adventista do sétimo dia de botafogo - rio de janeiro"
           transform="translate(-5.0771252,36.163304)" />
        <path
           id="path123"
           d="m -3.5869609,13.792038 c 1.171875,0.07031 2.2734375,0.140625 3.24609371,0.140625 8.75390629,0 11.44921919,-3.375 11.44921919,-11.7304692 V -36.141556 H 4.2060078 V 3.7959438 c 0,3.0351562 -1.5117187,4.3476562 -5.2382812,4.3476562 -0.8320313,0 -1.6640625,0 -2.5546875,-0.140625 z m 7.7929687,-55.863282 h 6.9023442 v -7.59375 H 4.2060078 Z m 10.0078122,24 c 0,10.417969 6.890625,19.3125003 20.964844,19.3125003 14.074219,0 20.964844,-8.8945313 20.964844,-19.3125003 0,-10.417968 -6.890625,-19.3125 -20.964844,-19.3125 -14.074219,0 -20.964844,8.894532 -20.964844,19.3125 z m 34.617188,0 c 0,6.550782 -3.65625,13.5234378 -13.652344,13.5234378 -9.996094,0 -13.652344,-6.9726558 -13.652344,-13.5234378 0,-6.550781 3.65625,-13.523437 13.652344,-13.523437 9.996094,0 13.652344,6.972656 13.652344,13.523437 z M 73.665969,-7.5829625 61.244094,-36.141556 h -7.921875 l 16.40625,36.14062475 h 7.59375 L 93.599562,-36.141556 h -7.722656 z m 57.943361,-8.4257815 v -0.890625 c 0,-14.964843 -10.07813,-20.484375 -19.59375,-20.484375 -14.074221,0 -20.964846,8.894532 -20.964846,19.3125 0,10.417969 6.890625,19.3125003 20.964846,19.3125003 7.10156,0 15.17578,-3.515625 18.62109,-12.2109373 h -7.3125 c -2.34375,5.1093748 -7.72265,6.4218748 -11.64844,6.4218748 -6.14062,0 -12.761714,-4.0078125 -13.312496,-11.4609378 z M 98.562453,-21.38765 c 1.042969,-6.480469 6.761717,-10.207031 13.113277,-10.207031 6.48047,0 11.57813,3.65625 12.6211,10.207031 z M 134.01753,-9.3125e-4 h 6.90234 V -20.836869 c 0,-7.101562 5.57813,-10.757812 11.85938,-10.757812 7.38281,0 10.6875,3.035156 10.6875,8.34375 V -9.3125e-4 h 6.90234 V -24.622025 c 0,-9.035156 -6.48047,-12.761719 -15.17578,-12.761719 -5.16797,0 -10.89844,1.652344 -14.14453,6.691407 h -0.12891 v -5.449219 h -6.90234 z M 172.98237,-11.379837 c 0.76172,10.476562 10.21875,12.6210933 18.49219,12.6210933 11.03906,0 18.14063,-3.9375 18.14063,-12.3515623 0,-5.097656 -3.51563,-8.34375 -12.6211,-9.585938 l -9.79687,-1.3125 c -4.89844,-0.679687 -6,-2.0625 -6,-4.476562 0,-4.277344 5.09765,-5.519531 9.51562,-5.519531 7.17188,0 10.62891,3.105468 10.82813,6.761718 h 6.90234 c -0.62109,-7.042968 -5.80078,-12.140625 -17.66015,-12.140625 -10.13672,0 -16.48829,4.347657 -16.48829,11.660157 0,5.578125 4.62891,8.894531 9.79688,9.585937 l 11.37891,1.511719 c 5.51953,0.761719 6.83203,2.273437 6.83203,4.8281248 0,2.5546875 -2.13282,5.6601562 -11.03907,5.6601562 -8.7539,0 -11.3789,-4.0078125 -11.3789,-7.242187 z m 0,0"
           style="fill:#fbc707;fill-opacity:1;fill-rule:nonzero;stroke:none" />
        <path
           id="path124"
           d="m 243.55269,-13.243119 c 0,8.4140628 -9.31641,11.589844 -16.34766,11.589844 -4.27734,0 -11.51953,-0.8320312 -11.51953,-8.0039062 0,-5.3085938 4.20703,-6.9726558 10.13672,-7.3828128 l 11.92969,-0.820312 c 3.03515,-0.210938 4.89843,-1.042969 5.66015,-1.863281 h 0.14063 z m -26.28516,-11.179687 c 0.97266,-6.339844 3.86719,-9.234375 13.17188,-9.234375 10.41796,0 13.11328,3.234375 13.11328,7.992187 0,4.347657 -1.72266,4.769532 -5.37891,5.039063 l -12.35156,0.832031 c -7.17188,0.410156 -13.3125,2.894531 -13.3125,10.1367188 0,10.7578125 11.44922,10.7578125 14.48437,10.7578125 4.61719,0 12.90235,-0.89062505 16.82813,-8.1328125 h 0.14062 c 0,4.6875 0,7.7226562 4.34766,7.7226562 1.58203,0 2.89453,-0.2109375 3.85547,-0.55078125 V -2.6259312 c -1.03125,0.3515625 -2.0625,0.5507812 -3.09375,0.5507812 -2.35547,0 -2.35547,-1.5820312 -2.35547,-4.2070312 V -26.07515 c 0,-7.933594 -5.92969,-10.347656 -16.20703,-10.347656 -10.6875,0 -15.2461,3.105469 -16.41797,12 z m 68.42871,24.42187475 h 3.17578 V -49.254837 h -3.17578 v 21.457031 h -0.14062 c -2.07422,-3.867188 -6.96094,-8.625 -15.65625,-8.625 -10.75782,0 -18.83203,7.453125 -18.83203,18.691406 0,10.0078125 6.41015,18.8320313 18.83203,18.8320313 9.10547,0 14.0039,-4.6171875 15.65625,-8.8242188 h 0.14062 z M 269.5478,-1.653275 c -8.7539,0 -15.30468,-6 -15.30468,-16.148437 0,-10.757813 7.58203,-15.855469 15.72656,-15.855469 7.17187,0 16.13672,3.925781 16.13672,16.347656 0,6.269531 -3.30469,15.65625 -16.5586,15.65625 z m 38.35547,1.65234375 h 3.17578 L 328.52827,-35.321244 h -3.58593 L 309.4853,-3.1767125 294.03999,-35.321244 h -3.58594 z M 365.90523,-16.969681 c -0.12891,-11.308594 -7.17188,-19.453125 -19.45313,-19.453125 -15.03515,0 -19.72265,11.109375 -19.72265,18.492187 0,11.7187503 7.58203,19.0312503 19.66406,19.0312503 9.375,0 15.58594,-3.9257813 18.55078,-12.8320313 h -3.17578 c -1.24219,3.1757813 -4.06641,10.078125 -15.03516,10.078125 -10.61719,0 -16.6289,-6.4921875 -16.82812,-15.316406 z m -36,-2.753906 c 1.38281,-8.414063 7.10156,-13.933594 16.20703,-13.933594 8.14453,0 14.89453,4.277344 16.20703,13.933594 z m 40.07812,19.72265575 h 3.16406 V -20.625931 c 0,-6.550781 4.5586,-13.03125 14.97657,-13.03125 10.40625,0 13.10156,4.828125 13.10156,12 V -9.3125e-4 h 3.17578 V -21.797806 c 0,-4.277344 0,-14.625 -16.20703,-14.625 -8.07422,0 -12.70313,3.9375 -14.90625,8.144531 h -0.14063 v -7.042969 h -3.16406 z M 414.60542,-35.321244 h -8.0039 v 2.765625 h 8.0039 V -8.82515 c 0,6.75 1.24219,9.515625 8.625,9.515625 1.72266,0 3.72656,-0.0703125 5.37891,-0.41015625 V -2.4853062 c -1.45313,0.140625 -2.96485,0.4101562 -4.41797,0.4101562 -3.92578,0 -6.41016,-0.6796875 -6.41016,-5.0273437 V -32.555619 h 10.47657 v -2.765625 H 417.7812 v -11.929687 h -3.17578 z m 20.34375,35.32031275 h 3.17578 V -35.321244 h -3.17578 z m 0,-41.94140575 h 3.17578 v -7.3125 h -3.17578 z m 40.55567,16.96875 c -0.41016,-5.519532 -3.30469,-11.449219 -16.40625,-11.449219 -12.01172,0 -14.83594,6 -14.83594,10.007812 0,6.269532 5.58984,8.34375 9.9375,8.894532 l 12.41015,1.652343 c 4.13672,0.550782 7.10157,2.34375 7.10157,6.4218753 0,5.0273437 -3.58594,7.7929687 -12.89063,7.7929687 -13.73437,0 -14.48437,-5.7304687 -14.90625,-9.386719 h -3.16406 c 0.48047,8.8359378 7.51172,12.1406253 17.23828,12.1406253 6,0 16.89844,-0.96093755 16.89844,-10.546875 0,-6.3515623 -4.47656,-8.7656253 -11.09766,-9.6562503 l -11.25,-1.523437 c -4.20703,-0.550781 -7.10156,-2.132813 -7.10156,-6 0,-3.65625 2.82422,-7.03125 11.51953,-7.03125 9.17578,0 12.89063,2.824219 13.38281,8.683594 z m 10.55859,-10.347657 h -8.00391 v 2.765625 h 8.00391 V -8.82515 c 0,6.75 1.24219,9.515625 8.625,9.515625 1.72266,0 3.72656,-0.0703125 5.37891,-0.41015625 V -2.4853062 c -1.45313,0.140625 -2.96485,0.4101562 -4.41797,0.4101562 -3.92578,0 -6.41016,-0.6796875 -6.41016,-5.0273437 V -32.555619 h 10.47656 v -2.765625 h -10.47656 v -11.929687 h -3.17578 z m 46.2832,22.078125 c 0,8.4140628 -9.3164,11.589844 -16.34765,11.589844 -4.27735,0 -11.51953,-0.8320312 -11.51953,-8.0039062 0,-5.3085938 4.20703,-6.9726558 10.13671,-7.3828128 l 11.92969,-0.820312 c 3.03516,-0.210938 4.89844,-1.042969 5.66016,-1.863281 h 0.14062 z m -26.28515,-11.179687 c 0.97265,-6.339844 3.86718,-9.234375 13.17187,-9.234375 10.41797,0 13.11328,3.234375 13.11328,7.992187 0,4.347657 -1.72265,4.769532 -5.3789,5.039063 l -12.35157,0.832031 c -7.17187,0.410156 -13.3125,2.894531 -13.3125,10.1367188 0,10.7578125 11.44922,10.7578125 14.48438,10.7578125 4.61719,0 12.90234,-0.89062505 16.82812,-8.1328125 h 0.14063 c 0,4.6875 0,7.7226562 4.34766,7.7226562 1.58203,0 2.89453,-0.2109375 3.85546,-0.55078125 V -2.6259312 c -1.03125,0.3515625 -2.0625,0.5507812 -3.09375,0.5507812 -2.35546,0 -2.35546,-1.5820312 -2.35546,-4.2070312 V -26.07515 c 0,-7.933594 -5.92969,-10.347656 -16.20704,-10.347656 -10.6875,0 -15.24609,3.105469 -16.41796,12 z m 67.59375,-0.550781 c -0.41016,-5.519532 -3.30469,-11.449219 -16.40625,-11.449219 -12.01172,0 -14.83594,6 -14.83594,10.007812 0,6.269532 5.58984,8.34375 9.9375,8.894532 l 12.41016,1.652343 c 4.13671,0.550782 7.10156,2.34375 7.10156,6.4218753 0,5.0273437 -3.58594,7.7929687 -12.89063,7.7929687 -13.73437,0 -14.48437,-5.7304687 -14.90625,-9.386719 h -3.16406 c 0.48047,8.8359378 7.51172,12.1406253 17.23828,12.1406253 6,0 16.89844,-0.96093755 16.89844,-10.546875 0,-6.3515623 -4.47656,-8.7656253 -11.09766,-9.6562503 l -11.25,-1.523437 c -4.20703,-0.550781 -7.10156,-2.132813 -7.10156,-6 0,-3.65625 2.82422,-7.03125 11.51953,-7.03125 9.17578,0 12.89063,2.824219 13.38281,8.683594 z m 0,0"
           style="fill:#fbc707;fill-opacity:1;fill-rule:nonzero;stroke:none" />
      </g>
      <g
         id="g4"
         style="display:inline">
        <path
           id="path103"
           d="m 0,0 c -12.669,-28.529 -10.224,-62.835 9.443,-89.905 19.668,-27.07 51.537,-39.996 82.587,-36.763 12.666,28.529 10.224,62.835 -9.443,89.905 C 62.919,-9.693 31.045,3.23 0,0"
           style="fill:#fcd006;fill-opacity:1;fill-rule:nonzero;stroke:none"
           transform="matrix(1.3333333,0,0,-1.3333333,9291.7029,236.5876)"
           clip-path="url(#clipPath104)" />
        <path
           id="path105"
           d="m 0,0 c 6.519,-30.527 28.662,-56.844 60.485,-67.186 31.821,-10.336 65.203,-2.061 88.423,18.803 C 142.386,-17.859 120.243,8.464 88.422,18.803 56.602,29.142 23.217,20.862 0,0"
           style="fill:#fcd006;fill-opacity:1;fill-rule:nonzero;stroke:none"
           transform="matrix(1.3333333,0,0,-1.3333333,9186.6048,381.24507)"
           clip-path="url(#clipPath106)" />
        <path
           id="path107"
           d="m 0,0 c 23.219,-20.864 56.602,-29.142 88.422,-18.803 31.821,10.342 53.966,36.659 60.486,67.186 C 125.691,69.245 92.306,77.525 60.483,67.186 28.662,56.844 6.522,30.525 0,0"
           style="fill:#fcd006;fill-opacity:1;fill-rule:nonzero;stroke:none"
           transform="matrix(1.3333333,0,0,-1.3333333,9186.6048,560.05027)"
           clip-path="url(#clipPath108)" />
        <path
           id="path109"
           d="m 0,0 c 31.048,-3.233 62.919,9.693 82.587,36.761 19.668,27.072 22.112,61.378 9.443,89.907 C 60.983,129.898 29.108,116.975 9.441,89.902 -10.224,62.835 -12.666,28.529 0,0"
           style="fill:#fcd006;fill-opacity:1;fill-rule:nonzero;stroke:none"
           transform="matrix(1.3333333,0,0,-1.3333333,9291.7045,704.706)"
           clip-path="url(#clipPath110)" />
        <path
           id="path111"
           d="M 0,0 C 27.016,15.636 45.206,44.826 45.206,78.285 45.204,111.746 27.016,140.936 0,156.57 -27.016,140.936 -45.206,111.744 -45.206,78.285 -45.206,44.824 -27.014,15.636 0,0"
           style="fill:#fcd006;fill-opacity:1;fill-rule:nonzero;stroke:none"
           transform="matrix(1.3333333,0,0,-1.3333333,9461.7584,759.96027)"
           clip-path="url(#clipPath112)" />
        <path
           id="path113"
           d="m 0,0 c 12.669,28.532 10.224,62.838 -9.441,89.905 -19.67,27.072 -51.542,39.996 -82.587,36.766 -12.668,-28.53 -10.227,-62.838 9.441,-89.91 C -62.919,9.693 -31.045,-3.23 0,0"
           style="fill:#fcd006;fill-opacity:1;fill-rule:nonzero;stroke:none"
           transform="matrix(1.3333333,0,0,-1.3333333,9631.812,704.706)"
           clip-path="url(#clipPath114)" />
        <path
           id="path115"
           d="m 0,0 c -6.522,30.53 -28.664,56.847 -60.483,67.188 -31.828,10.337 -65.208,2.059 -88.425,-18.802 6.52,-30.528 28.662,-56.847 60.486,-67.189 C -56.602,-29.142 -23.219,-20.859 0,0"
           style="fill:#fcd006;fill-opacity:1;fill-rule:nonzero;stroke:none"
           transform="matrix(1.3333333,0,0,-1.3333333,9736.9117,560.05027)"
           clip-path="url(#clipPath116)" />
        <path
           id="path117"
           d="m 0,0 c -23.222,20.867 -56.607,29.142 -88.422,18.805 -31.826,-10.344 -53.966,-36.661 -60.486,-67.186 23.217,-20.864 56.6,-29.144 88.425,-18.805 C -28.662,-56.844 -6.524,-30.522 0,0"
           style="fill:#fcd006;fill-opacity:1;fill-rule:nonzero;stroke:none"
           transform="matrix(1.3333333,0,0,-1.3333333,9736.9117,381.24373)"
           clip-path="url(#clipPath118)" />
        <path
           id="path119"
           d="m 0,0 c -31.05,3.233 -62.925,-9.696 -82.587,-36.761 -19.668,-27.074 -22.112,-61.378 -9.443,-89.907 31.047,-3.233 62.919,9.693 82.589,36.763 C 10.224,-62.835 12.663,-28.529 0,0"
           style="fill:#fcd006;fill-opacity:1;fill-rule:nonzero;stroke:none"
           transform="matrix(1.3333333,0,0,-1.3333333,9631.812,236.58587)"
           clip-path="url(#clipPath120)" />
        <path
           id="path101"
           d="m 0,0 c -27.019,-15.634 -45.206,-44.826 -45.206,-78.285 0,-33.459 18.187,-62.651 45.206,-78.285 27.016,15.634 45.206,44.826 45.206,78.285 C 45.206,-44.826 27.016,-15.634 0,0"
           style="fill:#fcd006;fill-opacity:1;fill-rule:nonzero;stroke:none"
           transform="matrix(1.3333333,0,0,-1.3333333,9461.7567,181.3332)"
           clip-path="url(#clipPath102)" />
        <path
           id="path121"
           d="m 0,0 c 0,-79.892 -64.767,-144.654 -144.659,-144.654 -79.89,0 -144.657,64.762 -144.657,144.654 0,79.895 64.767,144.657 144.657,144.657 C -64.767,144.657 0,79.895 0,0"
           style="fill:#fee702;fill-opacity:1;fill-rule:nonzero;stroke:none"
           transform="matrix(1.3333333,0,0,-1.3333333,9654.6333,470.64867)"
           clip-path="url(#clipPath122)" />
      </g>
    </g>
  </g>
</svg>
